<?xml version="1.0" standalone="no"?><!DOCTYPE svg PUBLIC "-//W3C//DTD SVG 1.1//EN" "http://www.w3.org/Graphics/SVG/1.1/DTD/svg11.dtd"><svg t="1553218929534" class="icon" style="" viewBox="0 0 1024 1024" version="1.1" xmlns="http://www.w3.org/2000/svg" p-id="2245" xmlns:xlink="http://www.w3.org/1999/xlink" width="200" height="200"><defs><style type="text/css"></style></defs><path d="M157.98272 409.617067c-7.901867 1.058133-12.83072 4.887893-19.99872 15.557973-1.9968 2.932053-3.70688 5.53984-3.7888 5.74464-0.078507 0.2048-1.017173 1.66912-2.075307 3.29728-1.058133 1.590613-4.724053 7.3728-8.106667 12.87168-3.42016 5.49888-6.597973 10.468693-7.00416 11.07968-0.4096 0.610987-0.774827 1.221973-0.774827 1.344853s-0.447147 0.935253-1.017173 1.75104c-0.570027 0.815787-1.020587 1.631573-1.020587 1.792 0 0.2048 87.493973 0.28672 194.413227 0.24576l194.372267-0.12288 0.12288-27.006293 0.08192-26.965333-96.208213 0.12288-96.249173 0.12288-4.154027 1.099093c-12.383573 3.218773-20.16256 7.70048-29.2864 16.82432-7.171413 7.168-10.550613 12.62592-14.58176 23.58272-1.95584 5.25312-2.402987 6.314667-2.771627 6.314667-0.16384 0-0.365227-10.755413-0.406187-23.95136l-0.12288-23.9104-49.48992-0.04096C182.708907 409.330347 159.327573 409.453227 157.98272 409.617067L157.98272 409.617067zM513.368747 411.733333l0 27.006293-0.04096 24.439467 54.82496 0 0.119467-26.067627c0.044373-14.339413 0-26.477227-0.119467-27.006293l-0.201387-0.897707-54.586027 0L513.365333 411.733333zM695.241387 410.105173c-0.126293 0.529067-0.167253 12.66688-0.126293 27.006293l0.126293 26.067627 155.593387 0.12288c85.57568 0.04096 155.8016 0 156.0064-0.08192 0.279893-0.08192 0.361813-9.41056 0.279893-27.088213l-0.078507-26.924373-102.35904 0.08192c-94.74048 0.12288-102.560427 0.16384-105.373013 0.815787-22.84544 5.21216-38.53312 19.633493-46.394027 42.687147-1.66912 4.887893-2.2016 6.109867-2.563413 6.109867-0.16384 0-0.36864-11.12064-0.4096-24.763733l-0.12288-24.726187-27.16672-0.12288-27.20768-0.08192L695.241387 410.105173 695.241387 410.105173zM110.288213 468.759893l-3.341653 5.21216-5.1712 7.942827c-1.590613 2.443947-4.15744 6.437547-5.70368 8.840533-1.5872 2.402987-3.136853 4.846933-3.46112 5.41696-0.32768 0.570027-2.24256 3.54304-4.235947 6.597973-8.635733 13.277867-10.345813 15.970987-12.059307 18.653867-1.017173 1.549653-3.33824 5.137067-5.21216 7.942827-1.83296 2.812587-3.54304 5.461333-3.74784 5.905067-0.2048 0.45056-1.87392 3.017387-3.66592 5.70368-1.792 2.689707-3.7888 5.782187-4.481707 6.92224-0.689493 1.099093-2.686293 4.235947-4.478293 6.925653-1.792 2.686293-3.7888 5.782187-4.481707 6.92224-0.692907 1.09568-2.686293 4.235947-4.478293 6.92224-1.795413 2.686293-3.464533 5.25312-3.66592 5.707093-0.2048 0.447147-2.07872 3.3792-4.15744 6.5536-2.075307 3.140267-4.437333 6.724267-5.21216 7.94624-0.774827 1.21856-3.054933 4.765013-5.092693 7.898453-2.075307 3.136853-4.601173 7.08608-5.700267 8.751787l-3.546453 5.420373c-0.853333 1.303893-1.54624 2.566827-1.54624 2.771627s12.62592 0.365227 32.177493 0.365227l32.177493 0 3.136853-4.805973c1.66912-2.604373 4.235947-6.516053 5.62176-8.635733l4.765013-7.328427c1.221973-1.911467 3.87072-5.946027 5.82656-8.96 1.993387-3.017387 5.53984-8.512853 7.942827-12.219733l6.557013-10.144427c1.221973-1.87392 4.399787-6.79936 7.08608-10.912427 2.689707-4.11648 5.62176-8.594773 6.519467-10.021547 1.54624-2.44736 7.574187-11.69408 15.069867-23.179947 2.034347-3.054933 3.867307-5.901653 4.072107-6.311253 0.447147-0.774827 2.321067-3.62496 7.53664-11.53024 1.71008-2.563413 3.21536-4.9664 3.3792-5.29408 0.16384-0.324267 2.11968-3.3792 4.317867-6.720853 7.3728-11.12064 9.41056-14.49984 8.881493-14.62272-0.24576-0.08192-2.853547-0.365227-5.7856-0.610987-2.891093-0.283307-6.475093-0.651947-7.942827-0.853333-1.467733-0.2048-4.765013-0.570027-7.33184-0.815787-2.566827-0.24576-6.232747-0.610987-8.147627-0.815787-5.946027-0.651947-11.035307-1.181013-15.680853-1.62816-2.443947-0.24576-5.741227-0.610987-7.33184-0.815787-1.54624-0.201387-4.072107-0.447147-5.5808-0.610987l-2.727253-0.201387L110.288213 468.759893 110.288213 468.759893zM513.938773 467.821227c-0.078507 0.08192-0.160427 16.82432-0.160427 37.188267 0 20.3264-0.16384 36.98688-0.331093 36.98688-0.201387 0-0.733867-1.221973-1.262933-2.771627-5.29408-15.684267-18.24768-30.95552-32.136533-37.966507-8.471893-4.276907-12.342613-4.92544-39.99744-6.92224-2.566827-0.2048-6.966613-0.570027-9.775787-0.815787-2.812587-0.242347-7.45472-0.610987-10.386773-0.815787-2.894507-0.201387-7.49568-0.570027-10.185387-0.812373-2.686293-0.24576-7.24992-0.610987-10.181973-0.815787-2.891093-0.201387-7.574187-0.570027-10.386773-0.812373-9.24672-0.815787-14.37696-1.221973-20.16256-1.631573-3.136853-0.201387-10.181973-0.77824-15.680853-1.221973-5.49888-0.488107-12.260693-1.017173-15.069867-1.221973-8.717653-0.651947-15.885653-1.221973-28.716373-2.280107-4.03456-0.32768-9.693867-0.774827-12.62592-0.976213-2.894507-0.2048-7.5776-0.57344-10.386773-0.815787-2.812587-0.24576-6.642347-0.529067-8.553813-0.651947-1.91488-0.12288-5.133653-0.365227-7.212373-0.610987-7.778987-0.774827-8.021333-0.692907-7.24992 2.280107 5.62176 21.220693 17.800533 34.338133 38.249813 41.181867 7.410347 2.443947 8.185173 2.604373 17.75616 3.42016 2.566827 0.2048 5.70368 0.488107 6.925653 0.610987 1.221973 0.08192 4.805973 0.361813 7.942827 0.610987s6.516053 0.49152 7.53664 0.6144c1.017173 0.119467 3.013973 0.28672 4.478293 0.406187 8.881493 0.648533 14.093653 1.099093 17.312427 1.426773 2.03776 0.2048 5.21216 0.488107 7.12704 0.610987 1.91488 0.12288 5.49888 0.361813 7.942827 0.610987 2.484907 0.208213 5.86752 0.488107 7.53664 0.6144 1.66912 0.119467 6.273707 0.488107 10.181973 0.812373 3.91168 0.32768 8.229547 0.692907 9.570987 0.774827 6.642347 0.529067 13.728427 1.140053 20.16256 1.713493 3.91168 0.324267 9.53344 0.771413 12.424533 0.9728 11.322027 0.86016 15.110827 1.221973 16.57856 1.631573 9.325227 2.648747 10.386773 16.336213 1.62816 20.650667l-2.321067 1.143467-98.205013 0.119467c-82.23744 0.08192-98.286933 0-98.69312-0.447147-0.32768-0.406187-0.488107-11.731627-0.529067-40.649387l-0.12288-40.07936-2.850133-0.28672c-1.549653-0.16384-4.399787-0.365227-6.314667-0.529067-1.91488-0.12288-4.560213-0.28672-5.946027-0.406187-1.344853-0.12288-3.9936-0.32768-5.90848-0.45056-3.42016-0.201387-17.7152-1.262933-21.951147-1.5872l-6.232747-0.447147-3.95264-0.24576 0.08192 68.99712 0.12288 68.959573 130.05824 0.119467c146.387627 0.08192 130.788693 0.4096 139.789653-2.850133 19.469653-7.041707 34.99008-25.12896 38.32832-44.721493 0.2048-1.221973 0.488107-2.935467 0.610987-3.7888 0.4096-2.239147 0.98304-2.239147 0.98304 0 0 4.072107 2.84672 13.154987 6.188373 19.87584 7.778987 15.5648 20.445867 25.41568 39.430827 30.6688l3.867307 1.099093 66.392747 0.12288c68.509013 0.12288 69.041493 0.12288 75.56096-1.508693 25.33376-6.393173 40.813227-21.869227 44.192427-44.107093 0.648533-4.32128 0.935253-85.459627 0.32768-85.459627-0.208213-0.04096-1.426773-0.12288-2.77504-0.2048-3.628373-0.242347-10.100053-0.610987-14.052693-0.853333-3.908267-0.2048-14.49984-0.815787-24.439467-1.385813-3.70688-0.24576-7.898453-0.447147-9.366187-0.529067l-2.645333-0.08192-0.24576 32.58368c-0.238933 35.072-0.201387 34.665813-2.484907 39.31136-4.724053 9.652907-3.058347 9.407147-63.255893 9.28768l-48.063147-0.12288-2.443947-0.979627c-5.782187-2.321067-9.20576-5.986987-10.9568-11.851093-0.24576-0.938667-0.49152-14.62272-0.648533-39.103147l-0.208213-37.676373-4.481707-0.488107c-2.443947-0.24576-7.778987-0.692907-11.813547-0.938667-4.031147-0.242347-9.611947-0.610987-12.42112-0.812373C518.05184 467.862187 514.187947 467.61984 513.938773 467.821227L513.938773 467.821227zM754.50368 484.15744c0 0.812373 2.157227 6.79936 3.50208 9.693867 8.471893 18.449067 27.979093 31.607467 49.65376 33.440427 2.932053 0.238933 7.492267 0.648533 10.17856 0.853333 15.07328 1.30048 25.501013 2.16064 32.180907 2.645333 1.792 0.12288 3.990187 0.32768 4.887893 0.406187 1.754453 0.208213 3.3792 0.32768 12.219733 1.020587 3.136853 0.242347 6.516053 0.529067 7.53664 0.651947 1.017173 0.078507 4.113067 0.365227 6.92224 0.570027 2.812587 0.201387 6.273707 0.488107 7.74144 0.610987 1.467733 0.119467 4.92544 0.406187 7.74144 0.6144 2.80576 0.238933 6.106453 0.525653 7.328427 0.648533 1.221973 0.075093 3.42016 0.283307 4.891307 0.406187 1.46432 0.08192 4.560213 0.361813 6.918827 0.570027 6.519467 0.610987 19.633493 1.71008 24.849067 2.03776 11.444907 0.771413 15.069867 3.464533 15.148373 11.158187 0.04096 4.928853-2.2016 8.23296-6.79936 10.06592l-2.44736 0.9728-97.959253 0.208213-97.959253 0.2048 0 53.763413 99.997013 0.078507c55.476907 0.044373 100.8128-0.078507 101.829973-0.279893 1.020587-0.167253 3.218773-0.57344 4.887893-0.815787 31.24224-4.928853 52.299093-35.150507 48.226987-69.24288-1.952427-16.00512-17.554773-36.375893-33.604267-43.748693-7.24992-3.33824-12.991147-4.560213-24.804693-5.376-1.467733-0.08192-4.846933-0.324267-7.540053-0.570027-2.68288-0.2048-8.628907-0.570027-13.233493-0.815787-4.601173-0.242347-8.881493-0.529067-9.5744-0.648533-0.648533-0.08192-3.70688-0.28672-6.720853-0.4096s-6.7584-0.365227-8.352427-0.529067c-1.54624-0.16384-4.765013-0.365227-7.12704-0.406187-2.321067-0.04096-4.358827-0.16384-4.519253-0.24576-0.119467-0.12288-2.894507-0.283307-6.106453-0.406187-3.218773-0.12288-6.44096-0.32768-7.092907-0.406187-0.689493-0.12288-3.1744-0.28672-5.495467-0.4096l-10.99776-0.610987c-3.70688-0.242347-9.73824-0.610987-13.441707-0.812373l-9.530027-0.610987c-1.54624-0.12288-4.765013-0.32768-7.12704-0.4096-2.358613-0.12288-5.49888-0.283307-6.966613-0.406187-1.46432-0.12288-4.481707-0.28672-6.720853-0.406187-3.587413-0.2048-7.615147-0.45056-20.568747-1.221973-3.7888-0.24576-5.62176-0.36864-17.513813-1.020587-4.355413-0.242347-9.980587-0.610987-12.46208-0.812373C760.654507 483.62496 754.50368 483.62496 754.50368 484.15744L754.50368 484.15744z" p-id="2246" fill="#FFFFFF"></path></svg>